<svg xmlns="http://www.w3.org/2000/svg" width="40" height="40" viewBox="0 0 40 40">
    <defs>
        <style>
            .prefix__cls-1,.prefix__cls-7{fill:none}.prefix__cls-1,.prefix__cls-4{stroke:#222}.prefix__cls-1{stroke-linecap:round;stroke-linejoin:round}.prefix__cls-6{stroke:none}
        </style>
    </defs>
    <g id="prefix__ic_customer" transform="translate(-264 -1714)">
        <g id="prefix__그룹_3946" data-name="그룹 3946" transform="translate(266 1721)">
            <path id="prefix__패스_2477" d="M436.141 641.837v-11.509a12.451 12.451 0 0 1 12.222-12.668c5.245 0 9.719 3.424 11.627 8.748a12.233 12.233 0 0 1 .6 3.919v11.509" class="prefix__cls-1" data-name="패스 2477" transform="translate(-430.863 -617.66)"/>
            <path id="prefix__패스_2479" d="M434.641 629.041h2.491v10.209h-2.491a2.723 2.723 0 0 1-2.723-2.724v-4.76a2.723 2.723 0 0 1 2.723-2.725z" class="prefix__cls-1" data-name="패스 2479" transform="translate(-431.918 -615.105)"/>
            <path id="prefix__패스_2480" d="M459.224 629.041h-2.49v10.209h2.49a2.723 2.723 0 0 0 2.723-2.724v-4.76a2.723 2.723 0 0 0-2.723-2.724" data-name="패스 2480" transform="translate(-426.814 -615.105)" style="stroke:#222;fill:none"/>
            <path id="prefix__패스_3-2" d="M987.1 547.96a5.539 5.539 0 0 1-7.05 3.013 5.343 5.343 0 0 1-3.178-3.078" data-name="패스 3-2" transform="translate(-964.431 -529.085)" style="stroke-miterlimit:10;stroke-linecap:round;stroke:#222;fill:none"/>
            <g id="prefix__타원_890" class="prefix__cls-4" data-name="타원 890" transform="translate(11.704 11.349)">
                <circle cx="1" cy="1" r="1" class="prefix__cls-6"/>
                <circle cx="1" cy="1" r=".5" class="prefix__cls-7"/>
            </g>
            <g id="prefix__타원_891" class="prefix__cls-4" data-name="타원 891" transform="translate(20.575 11.349)">
                <circle cx="1" cy="1" r="1" class="prefix__cls-6"/>
                <circle cx="1" cy="1" r=".5" class="prefix__cls-7"/>
            </g>
        </g>
        <path id="prefix__guide" d="M0 0H40V40H0z" transform="translate(264 1714)" style="opacity:0;fill:none"/>
    </g>
</svg>
