<svg xmlns="http://www.w3.org/2000/svg" id="prefix__ic_password_register" width="28" height="28" viewBox="0 0 28 28">
    <defs>
        <style>
            .prefix__cls-1,.prefix__cls-2{fill:none}.prefix__cls-2{stroke:#222}.prefix__cls-4{stroke:none}
        </style>
    </defs>
    <path id="prefix__guide" d="M0 0H28V28H0z" class="prefix__cls-1"/>
    <g id="prefix__ic" transform="translate(5 3)">
        <g id="prefix__사각형_3744" class="prefix__cls-2" data-name="사각형 3744">
            <path d="M2 0h14a2 2 0 0 1 2 2v6.667a6 6 0 0 1-6 6H6a6 6 0 0 1-6-6V2a2 2 0 0 1 2-2z" class="prefix__cls-4" transform="translate(0 7.333)"/>
            <path d="M2 .5h14A1.5 1.5 0 0 1 17.5 2v6.667a5.5 5.5 0 0 1-5.5 5.5H6a5.5 5.5 0 0 1-5.5-5.5V2A1.5 1.5 0 0 1 2 .5z" class="prefix__cls-1" transform="translate(0 7.333)"/>
        </g>
        <g id="prefix__사각형_3745" class="prefix__cls-2" data-name="사각형 3745">
            <path d="M4.5 0A4.5 4.5 0 0 1 9 4.5v3.75H0V4.5A4.5 4.5 0 0 1 4.5 0z" class="prefix__cls-4" transform="translate(4.5)"/>
            <path d="M4.5.5a4 4 0 0 1 4 4v3.21a.04.04 0 0 1-.04.04H.54a.04.04 0 0 1-.04-.04V4.5a4 4 0 0 1 4-4z" class="prefix__cls-1" transform="translate(4.5)"/>
        </g>
        <g id="prefix__타원_879" class="prefix__cls-2" data-name="타원 879" transform="translate(7.2 11)">
            <ellipse cx="1.8" cy="1.833" class="prefix__cls-4" rx="1.8" ry="1.833"/>
            <ellipse cx="1.8" cy="1.833" class="prefix__cls-1" rx="1.3" ry="1.333"/>
        </g>
        <path id="prefix__선_185" d="M0 0L0 2.75" data-name="선 185" transform="translate(9 14.667)" style="stroke-linecap:round;stroke:#222;fill:none"/>
    </g>
</svg>
