<svg xmlns="http://www.w3.org/2000/svg" width="32" height="32" viewBox="0 0 32 32">
    <defs>
        <style>
            .prefix__cls-1,.prefix__cls-2{fill:none}.prefix__cls-2{stroke:#000}.prefix__cls-4{stroke:none}
        </style>
    </defs>
    <g id="prefix__ic_card_pw_register" transform="translate(-12.49 -12)">
        <path id="prefix__guide" d="M0 0H32V32H0z" class="prefix__cls-1" transform="translate(12.49 12)"/>
        <g id="prefix__그룹_6330" data-name="그룹 6330" transform="translate(17.49 15)">
            <g id="prefix__사각형_3744" class="prefix__cls-2" data-name="사각형 3744">
                <path d="M2 0h18a2 2 0 0 1 2 2v9.674a6 6 0 0 1-6 6H6a6 6 0 0 1-6-6V2a2 2 0 0 1 2-2z" class="prefix__cls-4" transform="translate(0 7.326)"/>
                <path d="M2 .5h18A1.5 1.5 0 0 1 21.5 2v9.674a5.5 5.5 0 0 1-5.5 5.5H6a5.5 5.5 0 0 1-5.5-5.5V2A1.5 1.5 0 0 1 2 .5z" class="prefix__cls-1" transform="translate(0 7.326)"/>
            </g>
            <g id="prefix__사각형_3745" class="prefix__cls-2" data-name="사각형 3745">
                <path d="M5.5 0A5.5 5.5 0 0 1 11 5.5v1.73H0V5.5A5.5 5.5 0 0 1 5.5 0z" class="prefix__cls-4" transform="translate(5.5 1)"/>
                <path d="M5.5.5a5 5 0 0 1 5 5v1.18a.051.051 0 0 1-.051.051H.551A.051.051 0 0 1 .5 6.68V5.5a5 5 0 0 1 5-5z" class="prefix__cls-1" transform="translate(5.5 1)"/>
            </g>
            <g id="prefix__타원_879" class="prefix__cls-2" data-name="타원 879" transform="translate(8.8 12.146)">
                <ellipse cx="2.2" cy="2.209" class="prefix__cls-4" rx="2.2" ry="2.209"/>
                <ellipse cx="2.2" cy="2.209" class="prefix__cls-1" rx="1.7" ry="1.709"/>
            </g>
            <path id="prefix__선_185" d="M0 0L0 3.314" data-name="선 185" transform="translate(11 16.565)" style="stroke-linecap:round;stroke:#000;fill:none"/>
        </g>
    </g>
</svg>
